# xmcd CD database file
#
# Track frame offsets:
#	150
#	13392
#	26140
#	45287
#	61773
#	84406
#	101545
#	114790
#	135313
#	151146
#	169674
#	185190
#	201590
#	222145
#	236262
#	254572
#	273925
#	286541
#	299527
#	315284
#
# Disc length: 4410 seconds
#
# Revision: 0
# Processed by: cddbd v1.5.2PL0 Copyright (c) Steve Scherf et al.
# Submitted via: CDex 1.70beta2
#
DISCID=0f113814
DTITLE=Various Artist - Country Series 04
DYEAR=1900
DGENRE=Country
TTITLE0=Alan Jackson - Don't Rock the Jukebox
TTITLE1=Roger Brown - Swing City
TTITLE2=Jimmy Buffet - Margaritaville
TTITLE3=Rick Trevino - I Only Get this Way with You
TTITLE4=Martina McBride - Life #9
TTITLE5=Shenandoeh - If Bubba Can Dance
TTITLE6=Bobby Helms - Fraulein
TTITLE7=Brooks and Dunn - My Maria
TTITLE8=Charlie Daniels Band - Boogie Woogie Fiddle Country Blues
TTITLE9=John Michael Montgomery - I Love the Way You Love Me
TTITLE10=George Strait - Man in Love woth You
TTITLE11=Dolly Parton - Romeo
TTITLE12=Steve Earl - Copperhead Road
TTITLE13=Collin Raye - That's my Story
TTITLE14=Hank Williams, Jr - Family Tradition
TTITLE15=Wynonna Judd - No One Else on Earth
TTITLE16=Tim McGraw - Refried Dreams
TTITLE17=Patsy Cline - I Fall to Pieces
TTITLE18=Ty England - Redneck Son
TTITLE19=Lionel Cartwright - My Heart is Set on You
EXTD=
EXTT0=
EXTT1=
EXTT2=
EXTT3=
EXTT4=
EXTT5=
EXTT6=
EXTT7=
EXTT8=
EXTT9=
EXTT10=
EXTT11=
EXTT12=
EXTT13=
EXTT14=
EXTT15=
EXTT16=
EXTT17=
EXTT18=
EXTT19=
PLAYORDER=
